<mxfile host="app.diagrams.net" modified="2024-01-23T07:32:31.859Z" agent="Mozilla/5.0 (Windows NT 10.0; Win64; x64) AppleWebKit/537.36 (KHTML, like Gecko) Chrome/120.0.0.0 Safari/537.36" etag="0qcPNnVFn9epBwXbD_Ga" version="22.1.21" type="github">
  <diagram name="Page-1" id="CCzu3LYXzAQrp2OKuka6">
    <mxGraphModel dx="1105" dy="607" grid="1" gridSize="10" guides="1" tooltips="1" connect="1" arrows="1" fold="1" page="1" pageScale="1" pageWidth="850" pageHeight="1100" math="0" shadow="0">
      <root>
        <mxCell id="0" />
        <mxCell id="1" parent="0" />
        <mxCell id="D5m5Tkm15tGIGqQcXdoR-2" value="" style="rounded=0;whiteSpace=wrap;html=1;rotation=-90;" vertex="1" parent="1">
          <mxGeometry x="300.23" y="79.75" width="749.93" height="792.29" as="geometry" />
        </mxCell>
        <mxCell id="D5m5Tkm15tGIGqQcXdoR-3" value="Register" style="ellipse;whiteSpace=wrap;html=1;" vertex="1" parent="1">
          <mxGeometry x="305" y="120" width="120" height="80" as="geometry" />
        </mxCell>
        <mxCell id="D5m5Tkm15tGIGqQcXdoR-5" value="Login" style="ellipse;whiteSpace=wrap;html=1;" vertex="1" parent="1">
          <mxGeometry x="305" y="220" width="120" height="80" as="geometry" />
        </mxCell>
        <mxCell id="D5m5Tkm15tGIGqQcXdoR-8" value="Update Property" style="ellipse;whiteSpace=wrap;html=1;" vertex="1" parent="1">
          <mxGeometry x="305" y="652.63" width="120" height="80" as="geometry" />
        </mxCell>
        <mxCell id="D5m5Tkm15tGIGqQcXdoR-9" value="List Property" style="ellipse;whiteSpace=wrap;html=1;" vertex="1" parent="1">
          <mxGeometry x="305" y="549" width="120" height="80" as="geometry" />
        </mxCell>
        <mxCell id="D5m5Tkm15tGIGqQcXdoR-10" value="Enter Details" style="ellipse;whiteSpace=wrap;html=1;" vertex="1" parent="1">
          <mxGeometry x="590" y="120" width="120" height="80" as="geometry" />
        </mxCell>
        <mxCell id="D5m5Tkm15tGIGqQcXdoR-11" value="View Property" style="ellipse;whiteSpace=wrap;html=1;" vertex="1" parent="1">
          <mxGeometry x="305" y="320" width="120" height="80" as="geometry" />
        </mxCell>
        <mxCell id="D5m5Tkm15tGIGqQcXdoR-12" value="Enter Login Credentials" style="ellipse;whiteSpace=wrap;html=1;" vertex="1" parent="1">
          <mxGeometry x="590" y="220" width="120" height="80" as="geometry" />
        </mxCell>
        <mxCell id="D5m5Tkm15tGIGqQcXdoR-13" value="Buy Property" style="ellipse;whiteSpace=wrap;html=1;" vertex="1" parent="1">
          <mxGeometry x="590" y="320" width="120" height="80" as="geometry" />
        </mxCell>
        <object label="Tenant&lt;br&gt;" id="D5m5Tkm15tGIGqQcXdoR-14">
          <mxCell style="shape=umlActor;verticalLabelPosition=bottom;verticalAlign=top;html=1;outlineConnect=0;" vertex="1" parent="1">
            <mxGeometry x="90" y="150" width="60" height="100" as="geometry" />
          </mxCell>
        </object>
        <mxCell id="D5m5Tkm15tGIGqQcXdoR-15" value="Landlord&lt;br&gt;" style="shape=umlActor;verticalLabelPosition=bottom;verticalAlign=top;html=1;outlineConnect=0;" vertex="1" parent="1">
          <mxGeometry x="90" y="470" width="60" height="100" as="geometry" />
        </mxCell>
        <mxCell id="D5m5Tkm15tGIGqQcXdoR-16" value="" style="endArrow=classic;html=1;rounded=0;entryX=0;entryY=0.5;entryDx=0;entryDy=0;" edge="1" parent="1" target="D5m5Tkm15tGIGqQcXdoR-3">
          <mxGeometry width="50" height="50" relative="1" as="geometry">
            <mxPoint x="160" y="200" as="sourcePoint" />
            <mxPoint x="210" y="150" as="targetPoint" />
          </mxGeometry>
        </mxCell>
        <mxCell id="D5m5Tkm15tGIGqQcXdoR-17" value="" style="endArrow=classic;html=1;rounded=0;entryX=0;entryY=0.5;entryDx=0;entryDy=0;" edge="1" parent="1" target="D5m5Tkm15tGIGqQcXdoR-5">
          <mxGeometry width="50" height="50" relative="1" as="geometry">
            <mxPoint x="160" y="200" as="sourcePoint" />
            <mxPoint x="315" y="170" as="targetPoint" />
          </mxGeometry>
        </mxCell>
        <mxCell id="D5m5Tkm15tGIGqQcXdoR-20" value="" style="endArrow=classic;html=1;rounded=0;entryX=0;entryY=0.5;entryDx=0;entryDy=0;" edge="1" parent="1" target="D5m5Tkm15tGIGqQcXdoR-11">
          <mxGeometry width="50" height="50" relative="1" as="geometry">
            <mxPoint x="160" y="200" as="sourcePoint" />
            <mxPoint x="220" y="310" as="targetPoint" />
          </mxGeometry>
        </mxCell>
        <mxCell id="D5m5Tkm15tGIGqQcXdoR-21" value="Enter Property&lt;br&gt;Details" style="ellipse;whiteSpace=wrap;html=1;" vertex="1" parent="1">
          <mxGeometry x="590" y="549" width="120" height="80" as="geometry" />
        </mxCell>
        <mxCell id="D5m5Tkm15tGIGqQcXdoR-23" value="" style="endArrow=classic;html=1;rounded=0;entryX=0;entryY=0.5;entryDx=0;entryDy=0;" edge="1" parent="1" target="D5m5Tkm15tGIGqQcXdoR-9">
          <mxGeometry width="50" height="50" relative="1" as="geometry">
            <mxPoint x="160" y="520" as="sourcePoint" />
            <mxPoint x="230" y="490" as="targetPoint" />
          </mxGeometry>
        </mxCell>
        <mxCell id="D5m5Tkm15tGIGqQcXdoR-24" value="" style="endArrow=classic;html=1;rounded=0;entryX=0;entryY=0.5;entryDx=0;entryDy=0;" edge="1" parent="1" target="D5m5Tkm15tGIGqQcXdoR-8">
          <mxGeometry width="50" height="50" relative="1" as="geometry">
            <mxPoint x="160" y="520" as="sourcePoint" />
            <mxPoint x="315" y="629" as="targetPoint" />
          </mxGeometry>
        </mxCell>
        <mxCell id="D5m5Tkm15tGIGqQcXdoR-25" value="" style="endArrow=classic;html=1;rounded=0;entryX=0;entryY=1;entryDx=0;entryDy=0;" edge="1" parent="1" target="D5m5Tkm15tGIGqQcXdoR-3">
          <mxGeometry width="50" height="50" relative="1" as="geometry">
            <mxPoint x="160" y="520" as="sourcePoint" />
            <mxPoint x="240" y="420" as="targetPoint" />
          </mxGeometry>
        </mxCell>
        <mxCell id="D5m5Tkm15tGIGqQcXdoR-26" value="" style="endArrow=classic;html=1;rounded=0;entryX=0;entryY=1;entryDx=0;entryDy=0;" edge="1" parent="1" target="D5m5Tkm15tGIGqQcXdoR-5">
          <mxGeometry width="50" height="50" relative="1" as="geometry">
            <mxPoint x="160" y="520" as="sourcePoint" />
            <mxPoint x="210" y="470" as="targetPoint" />
          </mxGeometry>
        </mxCell>
        <mxCell id="D5m5Tkm15tGIGqQcXdoR-29" value="" style="endArrow=classic;html=1;rounded=0;dashed=1;entryX=0;entryY=0.5;entryDx=0;entryDy=0;dashPattern=1 1;" edge="1" parent="1" target="D5m5Tkm15tGIGqQcXdoR-10">
          <mxGeometry width="50" height="50" relative="1" as="geometry">
            <mxPoint x="424.99512673679146" y="160.00000000000028" as="sourcePoint" />
            <mxPoint x="519.76" y="369.07" as="targetPoint" />
          </mxGeometry>
        </mxCell>
        <mxCell id="D5m5Tkm15tGIGqQcXdoR-30" value="Admin&lt;br&gt;" style="shape=umlActor;verticalLabelPosition=bottom;verticalAlign=top;html=1;outlineConnect=0;" vertex="1" parent="1">
          <mxGeometry x="1141" y="449.9" width="30" height="60" as="geometry" />
        </mxCell>
        <mxCell id="D5m5Tkm15tGIGqQcXdoR-32" value="Moniters" style="ellipse;whiteSpace=wrap;html=1;" vertex="1" parent="1">
          <mxGeometry x="870" y="445.9" width="120" height="80" as="geometry" />
        </mxCell>
        <mxCell id="D5m5Tkm15tGIGqQcXdoR-34" value="" style="endArrow=classic;html=1;rounded=0;entryX=1;entryY=0.5;entryDx=0;entryDy=0;" edge="1" parent="1" target="D5m5Tkm15tGIGqQcXdoR-32">
          <mxGeometry width="50" height="50" relative="1" as="geometry">
            <mxPoint x="1150" y="486" as="sourcePoint" />
            <mxPoint x="1043" y="520" as="targetPoint" />
          </mxGeometry>
        </mxCell>
        <mxCell id="D5m5Tkm15tGIGqQcXdoR-35" value="" style="endArrow=classic;html=1;rounded=0;entryX=1;entryY=0.5;entryDx=0;entryDy=0;exitX=0;exitY=0.5;exitDx=0;exitDy=0;dashed=1;dashPattern=1 1;" edge="1" parent="1" source="D5m5Tkm15tGIGqQcXdoR-32" target="D5m5Tkm15tGIGqQcXdoR-5">
          <mxGeometry width="50" height="50" relative="1" as="geometry">
            <mxPoint x="790" y="510" as="sourcePoint" />
            <mxPoint x="630" y="510" as="targetPoint" />
            <Array as="points">
              <mxPoint x="700" y="320" />
            </Array>
          </mxGeometry>
        </mxCell>
        <mxCell id="D5m5Tkm15tGIGqQcXdoR-36" value="&lt;h5&gt;&amp;lt;&amp;lt; includes&amp;gt;&amp;gt;&lt;/h5&gt;" style="text;strokeColor=none;align=center;fillColor=none;html=1;verticalAlign=middle;whiteSpace=wrap;rounded=0;" vertex="1" parent="1">
          <mxGeometry x="470" y="130" width="90" height="30" as="geometry" />
        </mxCell>
        <mxCell id="D5m5Tkm15tGIGqQcXdoR-37" value="" style="endArrow=classic;html=1;rounded=0;dashed=1;entryX=0;entryY=0.5;entryDx=0;entryDy=0;dashPattern=1 1;" edge="1" parent="1">
          <mxGeometry width="50" height="50" relative="1" as="geometry">
            <mxPoint x="424.99512673679146" y="259.47000000000025" as="sourcePoint" />
            <mxPoint x="590" y="259.47" as="targetPoint" />
          </mxGeometry>
        </mxCell>
        <mxCell id="D5m5Tkm15tGIGqQcXdoR-38" value="" style="endArrow=classic;html=1;rounded=0;dashed=1;entryX=0;entryY=0.5;entryDx=0;entryDy=0;dashPattern=1 1;" edge="1" parent="1" target="D5m5Tkm15tGIGqQcXdoR-13">
          <mxGeometry width="50" height="50" relative="1" as="geometry">
            <mxPoint x="424.99512673679146" y="359.47000000000025" as="sourcePoint" />
            <mxPoint x="590" y="359.47" as="targetPoint" />
          </mxGeometry>
        </mxCell>
        <mxCell id="D5m5Tkm15tGIGqQcXdoR-39" value="&lt;h5&gt;&amp;lt;&amp;lt; includes&amp;gt;&amp;gt;&lt;/h5&gt;" style="text;strokeColor=none;align=center;fillColor=none;html=1;verticalAlign=middle;whiteSpace=wrap;rounded=0;" vertex="1" parent="1">
          <mxGeometry x="470" y="229.99999999999997" width="90" height="30" as="geometry" />
        </mxCell>
        <mxCell id="D5m5Tkm15tGIGqQcXdoR-40" value="&lt;h5&gt;&amp;lt;&amp;lt; extends&amp;gt;&amp;gt;&lt;/h5&gt;" style="text;strokeColor=none;align=center;fillColor=none;html=1;verticalAlign=middle;whiteSpace=wrap;rounded=0;" vertex="1" parent="1">
          <mxGeometry x="470" y="320" width="90" height="30" as="geometry" />
        </mxCell>
        <mxCell id="D5m5Tkm15tGIGqQcXdoR-43" value="" style="endArrow=classic;html=1;rounded=0;dashed=1;entryX=0;entryY=0.5;entryDx=0;entryDy=0;dashPattern=1 1;" edge="1" parent="1">
          <mxGeometry width="50" height="50" relative="1" as="geometry">
            <mxPoint x="425.49512673679146" y="588.4700000000003" as="sourcePoint" />
            <mxPoint x="590.5" y="589" as="targetPoint" />
          </mxGeometry>
        </mxCell>
        <mxCell id="D5m5Tkm15tGIGqQcXdoR-44" value="&lt;h5&gt;&amp;lt;&amp;lt; includes&amp;gt;&amp;gt;&lt;/h5&gt;" style="text;strokeColor=none;align=center;fillColor=none;html=1;verticalAlign=middle;whiteSpace=wrap;rounded=0;" vertex="1" parent="1">
          <mxGeometry x="470" y="549" width="90" height="30" as="geometry" />
        </mxCell>
        <mxCell id="D5m5Tkm15tGIGqQcXdoR-46" value="&lt;h5&gt;&amp;lt;&amp;lt; includes&amp;gt;&amp;gt;&lt;/h5&gt;" style="text;strokeColor=none;align=center;fillColor=none;html=1;verticalAlign=middle;whiteSpace=wrap;rounded=0;rotation=45;" vertex="1" parent="1">
          <mxGeometry x="729" y="345" width="90" height="30" as="geometry" />
        </mxCell>
      </root>
    </mxGraphModel>
  </diagram>
</mxfile>
